<?xml version="1.0" encoding="utf-8" standalone="no"?>
<!DOCTYPE svg PUBLIC "-//W3C//DTD SVG 1.1//EN"
  "http://www.w3.org/Graphics/SVG/1.1/DTD/svg11.dtd">
<svg xmlns:xlink="http://www.w3.org/1999/xlink" width="515.619677pt" height="173.827791pt" viewBox="0 0 515.619677 173.827791" xmlns="http://www.w3.org/2000/svg" version="1.1">
 <metadata>
  <rdf:RDF xmlns:dc="http://purl.org/dc/elements/1.1/" xmlns:cc="http://creativecommons.org/ns#" xmlns:rdf="http://www.w3.org/1999/02/22-rdf-syntax-ns#">
   <cc:Work>
    <dc:type rdf:resource="http://purl.org/dc/dcmitype/StillImage"/>
    <dc:date>2026-10-02T09:21:13.311565</dc:date>
    <dc:format>image/svg+xml</dc:format>
    <dc:creator>
     <cc:Agent>
      <dc:title>Matplotlib v3.10.8, https://matplotlib.org/</dc:title>
     </cc:Agent>
    </dc:creator>
   </cc:Work>
  </rdf:RDF>
 </metadata>
 <defs>
  <style type="text/css">*{stroke-linejoin: round; stroke-linecap: butt}</style>
 </defs>
 <g id="figure_1">
  <g id="patch_1">
   <path d="M 0 173.827791 
L 515.619677 173.827791 
L 515.619677 0 
L 0 0 
z
" style="fill: #ffffff"/>
  </g>
  <g id="axes_1">
   <g id="patch_2">
    <path d="M 24.51875 153.916854 
L 171.738739 153.916854 
L 171.738739 30.376345 
L 24.51875 30.376345 
z
" style="fill: #ffffff"/>
   </g>
   <g id="matplotlib.axis_1">
    <g id="xtick_1">
     <g id="line2d_1">
      <defs>
       <path id="m06f5d43fc4" d="M 0 0 
L 0 2.5 
" style="stroke: #000000; stroke-width: 0.5"/>
      </defs>
      <g>
       <use xlink:href="#m06f5d43fc4" x="31.210568" y="153.916854" style="stroke: #000000; stroke-width: 0.5"/>
      </g>
     </g>
     <g id="text_1">
      <text style="font-size: 6px; font-family: 'Arial', 'Helvetica', 'Liberation Sans', 'DejaVu Sans', sans-serif; text-anchor: middle" x="31.210568" y="162.711541" transform="rotate(-0 31.210568 162.711541)">1</text>
     </g>
    </g>
    <g id="xtick_2">
     <g id="line2d_2">
      <g>
       <use xlink:href="#m06f5d43fc4" x="75.822686" y="153.916854" style="stroke: #000000; stroke-width: 0.5"/>
      </g>
     </g>
     <g id="text_2">
      <text style="font-size: 6px; font-family: 'Arial', 'Helvetica', 'Liberation Sans', 'DejaVu Sans', sans-serif; text-anchor: middle" x="75.822686" y="162.711541" transform="rotate(-0 75.822686 162.711541)">2</text>
     </g>
    </g>
    <g id="xtick_3">
     <g id="line2d_3">
      <g>
       <use xlink:href="#m06f5d43fc4" x="120.434804" y="153.916854" style="stroke: #000000; stroke-width: 0.5"/>
      </g>
     </g>
     <g id="text_3">
      <text style="font-size: 6px; font-family: 'Arial', 'Helvetica', 'Liberation Sans', 'DejaVu Sans', sans-serif; text-anchor: middle" x="120.434804" y="162.711541" transform="rotate(-0 120.434804 162.711541)">3</text>
     </g>
    </g>
    <g id="xtick_4">
     <g id="line2d_4">
      <g>
       <use xlink:href="#m06f5d43fc4" x="165.046921" y="153.916854" style="stroke: #000000; stroke-width: 0.5"/>
      </g>
     </g>
     <g id="text_4">
      <text style="font-size: 6px; font-family: 'Arial', 'Helvetica', 'Liberation Sans', 'DejaVu Sans', sans-serif; text-anchor: middle" x="165.046921" y="162.711541" transform="rotate(-0 165.046921 162.711541)">4</text>
     </g>
    </g>
    <g id="text_5">
     <text style="font-size: 7px; font-family: 'Arial', 'Helvetica', 'Liberation Sans', 'DejaVu Sans', sans-serif; text-anchor: middle" x="98.128745" y="170.91451" transform="rotate(-0 98.128745 170.91451)">v_min: votes a region needs</text>
    </g>
   </g>
   <g id="matplotlib.axis_2">
    <g id="ytick_1">
     <g id="line2d_5">
      <defs>
       <path id="mfbc4c7f4f1" d="M 0 0 
L -2.5 0 
" style="stroke: #000000; stroke-width: 0.5"/>
      </defs>
      <g>
       <use xlink:href="#mfbc4c7f4f1" x="24.51875" y="153.916854" style="stroke: #000000; stroke-width: 0.5"/>
      </g>
     </g>
     <g id="text_6">
      <text style="font-size: 6px; font-family: 'Arial', 'Helvetica', 'Liberation Sans', 'DejaVu Sans', sans-serif; text-anchor: end" x="20.01875" y="156.064198" transform="rotate(-0 20.01875 156.064198)">0</text>
     </g>
    </g>
    <g id="ytick_2">
     <g id="line2d_6">
      <g>
       <use xlink:href="#mfbc4c7f4f1" x="24.51875" y="128.707078" style="stroke: #000000; stroke-width: 0.5"/>
      </g>
     </g>
     <g id="text_7">
      <text style="font-size: 6px; font-family: 'Arial', 'Helvetica', 'Liberation Sans', 'DejaVu Sans', sans-serif; text-anchor: end" x="20.01875" y="130.854421" transform="rotate(-0 20.01875 130.854421)">200</text>
     </g>
    </g>
    <g id="ytick_3">
     <g id="line2d_7">
      <g>
       <use xlink:href="#mfbc4c7f4f1" x="24.51875" y="103.497301" style="stroke: #000000; stroke-width: 0.5"/>
      </g>
     </g>
     <g id="text_8">
      <text style="font-size: 6px; font-family: 'Arial', 'Helvetica', 'Liberation Sans', 'DejaVu Sans', sans-serif; text-anchor: end" x="20.01875" y="105.644645" transform="rotate(-0 20.01875 105.644645)">400</text>
     </g>
    </g>
    <g id="ytick_4">
     <g id="line2d_8">
      <g>
       <use xlink:href="#mfbc4c7f4f1" x="24.51875" y="78.287525" style="stroke: #000000; stroke-width: 0.5"/>
      </g>
     </g>
     <g id="text_9">
      <text style="font-size: 6px; font-family: 'Arial', 'Helvetica', 'Liberation Sans', 'DejaVu Sans', sans-serif; text-anchor: end" x="20.01875" y="80.434869" transform="rotate(-0 20.01875 80.434869)">600</text>
     </g>
    </g>
    <g id="ytick_5">
     <g id="line2d_9">
      <g>
       <use xlink:href="#mfbc4c7f4f1" x="24.51875" y="53.077749" style="stroke: #000000; stroke-width: 0.5"/>
      </g>
     </g>
     <g id="text_10">
      <text style="font-size: 6px; font-family: 'Arial', 'Helvetica', 'Liberation Sans', 'DejaVu Sans', sans-serif; text-anchor: end" x="20.01875" y="55.225092" transform="rotate(-0 20.01875 55.225092)">800</text>
     </g>
    </g>
    <g id="text_11">
     <text style="font-size: 7px; font-family: 'Arial', 'Helvetica', 'Liberation Sans', 'DejaVu Sans', sans-serif; text-anchor: middle" x="6.535781" y="92.146599" transform="rotate(-90 6.535781 92.146599)">tune merged regions called (n)</text>
    </g>
   </g>
   <g id="line2d_10">
    <path d="M 31.210568 80.934551 
L 75.822686 82.825285 
L 120.434804 86.102556 
L 165.046921 88.245387 
" clip-path="url(#p8453d5437e)" style="fill: none; stroke: #0072b2; stroke-linecap: square"/>
    <defs>
     <path id="m8e6fe52f52" d="M 0 1.5 
C 0.397805 1.5 0.77937 1.341951 1.06066 1.06066 
C 1.341951 0.77937 1.5 0.397805 1.5 0 
C 1.5 -0.397805 1.341951 -0.77937 1.06066 -1.06066 
C 0.77937 -1.341951 0.397805 -1.5 0 -1.5 
C -0.397805 -1.5 -0.77937 -1.341951 -1.06066 -1.06066 
C -1.341951 -0.77937 -1.5 -0.397805 -1.5 0 
C -1.5 0.397805 -1.341951 0.77937 -1.06066 1.06066 
C -0.77937 1.341951 -0.397805 1.5 0 1.5 
z
" style="stroke: #0072b2"/>
    </defs>
    <g clip-path="url(#p8453d5437e)">
     <use xlink:href="#m8e6fe52f52" x="31.210568" y="80.934551" style="fill: #0072b2; stroke: #0072b2"/>
     <use xlink:href="#m8e6fe52f52" x="75.822686" y="82.825285" style="fill: #0072b2; stroke: #0072b2"/>
     <use xlink:href="#m8e6fe52f52" x="120.434804" y="86.102556" style="fill: #0072b2; stroke: #0072b2"/>
     <use xlink:href="#m8e6fe52f52" x="165.046921" y="88.245387" style="fill: #0072b2; stroke: #0072b2"/>
    </g>
   </g>
   <g id="line2d_11">
    <path d="M 31.210568 153.412658 
L 75.822686 153.412658 
L 120.434804 153.664756 
L 165.046921 153.664756 
" clip-path="url(#p8453d5437e)" style="fill: none; stroke: #d55e00; stroke-linecap: square"/>
    <defs>
     <path id="m330bc843bd" d="M -1.5 1.5 
L 1.5 1.5 
L 1.5 -1.5 
L -1.5 -1.5 
z
" style="stroke: #d55e00; stroke-linejoin: miter"/>
    </defs>
    <g clip-path="url(#p8453d5437e)">
     <use xlink:href="#m330bc843bd" x="31.210568" y="153.412658" style="fill: #ffffff; stroke: #d55e00; stroke-linejoin: miter"/>
     <use xlink:href="#m330bc843bd" x="75.822686" y="153.412658" style="fill: #ffffff; stroke: #d55e00; stroke-linejoin: miter"/>
     <use xlink:href="#m330bc843bd" x="120.434804" y="153.664756" style="fill: #ffffff; stroke: #d55e00; stroke-linejoin: miter"/>
     <use xlink:href="#m330bc843bd" x="165.046921" y="153.664756" style="fill: #ffffff; stroke: #d55e00; stroke-linejoin: miter"/>
    </g>
   </g>
   <g id="line2d_12">
    <path d="M 33.887295 80.934551 
" clip-path="url(#p8453d5437e)" style="fill: none; stroke-dasharray: 3.7,1.6; stroke-dashoffset: 0; stroke: #0072b2"/>
    <g clip-path="url(#p8453d5437e)">
     <use xlink:href="#m8e6fe52f52" x="33.887295" y="80.934551" style="fill: #0072b2; stroke: #0072b2"/>
    </g>
   </g>
   <g id="line2d_13">
    <path d="M 33.887295 153.412658 
" clip-path="url(#p8453d5437e)" style="fill: none; stroke-dasharray: 3.7,1.6; stroke-dashoffset: 0; stroke: #d55e00"/>
    <g clip-path="url(#p8453d5437e)">
     <use xlink:href="#m330bc843bd" x="33.887295" y="153.412658" style="fill: #ffffff; stroke: #d55e00; stroke-linejoin: miter"/>
    </g>
   </g>
   <g id="patch_3">
    <path d="M 24.51875 153.916854 
L 24.51875 30.376345 
" style="fill: none; stroke: #000000; stroke-width: 0.5; stroke-linejoin: miter; stroke-linecap: square"/>
   </g>
   <g id="patch_4">
    <path d="M 24.51875 153.916854 
L 171.738739 153.916854 
" style="fill: none; stroke: #000000; stroke-width: 0.5; stroke-linejoin: miter; stroke-linecap: square"/>
   </g>
   <g id="text_12">
    <text style="font-size: 7px; font-family: 'Arial', 'Helvetica', 'Liberation Sans', 'DejaVu Sans', sans-serif; text-anchor: start" x="39.210568" y="92.934551" transform="rotate(-0 39.210568 92.934551)">v_min = 1</text>
   </g>
   <g id="text_13">
    <text style="font-weight: 700; font-size: 8px; font-family: 'Arial', 'Helvetica', 'Liberation Sans', 'DejaVu Sans', sans-serif; text-anchor: start" x="6.51875" y="24.797595" transform="rotate(-0 6.51875 24.797595)">a</text>
   </g>
   <g id="text_14">
    <text style="font-size: 7px; font-family: 'Arial', 'Helvetica', 'Liberation Sans', 'DejaVu Sans', sans-serif; text-anchor: middle" x="98.128745" y="24.376345" transform="rotate(-0 98.128745 24.376345)">E_max 0.1</text>
   </g>
   <g id="PathCollection_1">
    <path d="M 31.210568 85.677968 
C 32.468536 85.677968 33.675151 85.178172 34.56467 84.288653 
C 35.454188 83.399135 35.953984 82.19252 35.953984 80.934551 
C 35.953984 79.676583 35.454188 78.469968 34.56467 77.58045 
C 33.675151 76.690931 32.468536 76.191135 31.210568 76.191135 
C 29.952599 76.191135 28.745984 76.690931 27.856466 77.58045 
C 26.966947 78.469968 26.467151 79.676583 26.467151 80.934551 
C 26.467151 82.19252 26.966947 83.399135 27.856466 84.288653 
C 28.745984 85.178172 29.952599 85.677968 31.210568 85.677968 
L 31.210568 85.677968 
z
" clip-path="url(#p8453d5437e)" style="fill: none; stroke: #000000"/>
   </g>
   <g id="PathCollection_2">
    <path d="M 33.887295 85.677968 
C 35.145264 85.677968 36.351878 85.178172 37.241397 84.288653 
C 38.130915 83.399135 38.630711 82.19252 38.630711 80.934551 
C 38.630711 79.676583 38.130915 78.469968 37.241397 77.58045 
C 36.351878 76.690931 35.145264 76.191135 33.887295 76.191135 
C 32.629326 76.191135 31.422711 76.690931 30.533193 77.58045 
C 29.643675 78.469968 29.143878 79.676583 29.143878 80.934551 
C 29.143878 82.19252 29.643675 83.399135 30.533193 84.288653 
C 31.422711 85.178172 32.629326 85.677968 33.887295 85.677968 
L 33.887295 85.677968 
z
" clip-path="url(#p8453d5437e)" style="fill: none; stroke: #000000"/>
   </g>
  </g>
  <g id="axes_2">
   <g id="patch_5">
    <path d="M 195.739219 153.916854 
L 342.959208 153.916854 
L 342.959208 30.376345 
L 195.739219 30.376345 
z
" style="fill: #ffffff"/>
   </g>
   <g id="matplotlib.axis_3">
    <g id="xtick_5">
     <g id="line2d_14">
      <g>
       <use xlink:href="#m06f5d43fc4" x="202.431037" y="153.916854" style="stroke: #000000; stroke-width: 0.5"/>
      </g>
     </g>
     <g id="text_15">
      <text style="font-size: 6px; font-family: 'Arial', 'Helvetica', 'Liberation Sans', 'DejaVu Sans', sans-serif; text-anchor: middle" x="202.431037" y="162.711541" transform="rotate(-0 202.431037 162.711541)">1</text>
     </g>
    </g>
    <g id="xtick_6">
     <g id="line2d_15">
      <g>
       <use xlink:href="#m06f5d43fc4" x="247.043155" y="153.916854" style="stroke: #000000; stroke-width: 0.5"/>
      </g>
     </g>
     <g id="text_16">
      <text style="font-size: 6px; font-family: 'Arial', 'Helvetica', 'Liberation Sans', 'DejaVu Sans', sans-serif; text-anchor: middle" x="247.043155" y="162.711541" transform="rotate(-0 247.043155 162.711541)">2</text>
     </g>
    </g>
    <g id="xtick_7">
     <g id="line2d_16">
      <g>
       <use xlink:href="#m06f5d43fc4" x="291.655273" y="153.916854" style="stroke: #000000; stroke-width: 0.5"/>
      </g>
     </g>
     <g id="text_17">
      <text style="font-size: 6px; font-family: 'Arial', 'Helvetica', 'Liberation Sans', 'DejaVu Sans', sans-serif; text-anchor: middle" x="291.655273" y="162.711541" transform="rotate(-0 291.655273 162.711541)">3</text>
     </g>
    </g>
    <g id="xtick_8">
     <g id="line2d_17">
      <g>
       <use xlink:href="#m06f5d43fc4" x="336.267391" y="153.916854" style="stroke: #000000; stroke-width: 0.5"/>
      </g>
     </g>
     <g id="text_18">
      <text style="font-size: 6px; font-family: 'Arial', 'Helvetica', 'Liberation Sans', 'DejaVu Sans', sans-serif; text-anchor: middle" x="336.267391" y="162.711541" transform="rotate(-0 336.267391 162.711541)">4</text>
     </g>
    </g>
    <g id="text_19">
     <text style="font-size: 7px; font-family: 'Arial', 'Helvetica', 'Liberation Sans', 'DejaVu Sans', sans-serif; text-anchor: middle" x="269.349214" y="170.91451" transform="rotate(-0 269.349214 170.91451)">v_min: votes a region needs</text>
    </g>
   </g>
   <g id="matplotlib.axis_4">
    <g id="ytick_6">
     <g id="line2d_18">
      <g>
       <use xlink:href="#mfbc4c7f4f1" x="195.739219" y="153.916854" style="stroke: #000000; stroke-width: 0.5"/>
      </g>
     </g>
    </g>
    <g id="ytick_7">
     <g id="line2d_19">
      <g>
       <use xlink:href="#mfbc4c7f4f1" x="195.739219" y="128.707078" style="stroke: #000000; stroke-width: 0.5"/>
      </g>
     </g>
    </g>
    <g id="ytick_8">
     <g id="line2d_20">
      <g>
       <use xlink:href="#mfbc4c7f4f1" x="195.739219" y="103.497301" style="stroke: #000000; stroke-width: 0.5"/>
      </g>
     </g>
    </g>
    <g id="ytick_9">
     <g id="line2d_21">
      <g>
       <use xlink:href="#mfbc4c7f4f1" x="195.739219" y="78.287525" style="stroke: #000000; stroke-width: 0.5"/>
      </g>
     </g>
    </g>
    <g id="ytick_10">
     <g id="line2d_22">
      <g>
       <use xlink:href="#mfbc4c7f4f1" x="195.739219" y="53.077749" style="stroke: #000000; stroke-width: 0.5"/>
      </g>
     </g>
    </g>
   </g>
   <g id="line2d_23">
    <path d="M 202.431037 69.085957 
L 247.043155 72.237179 
L 291.655273 78.539623 
L 336.267391 80.304307 
" clip-path="url(#pd07d78161b)" style="fill: none; stroke: #0072b2; stroke-linecap: square"/>
    <g clip-path="url(#pd07d78161b)">
     <use xlink:href="#m8e6fe52f52" x="202.431037" y="69.085957" style="fill: #0072b2; stroke: #0072b2"/>
     <use xlink:href="#m8e6fe52f52" x="247.043155" y="72.237179" style="fill: #0072b2; stroke: #0072b2"/>
     <use xlink:href="#m8e6fe52f52" x="291.655273" y="78.539623" style="fill: #0072b2; stroke: #0072b2"/>
     <use xlink:href="#m8e6fe52f52" x="336.267391" y="80.304307" style="fill: #0072b2; stroke: #0072b2"/>
    </g>
   </g>
   <g id="line2d_24">
    <path d="M 202.431037 151.143779 
L 247.043155 152.404267 
L 291.655273 152.908463 
L 336.267391 153.160561 
" clip-path="url(#pd07d78161b)" style="fill: none; stroke: #d55e00; stroke-linecap: square"/>
    <g clip-path="url(#pd07d78161b)">
     <use xlink:href="#m330bc843bd" x="202.431037" y="151.143779" style="fill: #ffffff; stroke: #d55e00; stroke-linejoin: miter"/>
     <use xlink:href="#m330bc843bd" x="247.043155" y="152.404267" style="fill: #ffffff; stroke: #d55e00; stroke-linejoin: miter"/>
     <use xlink:href="#m330bc843bd" x="291.655273" y="152.908463" style="fill: #ffffff; stroke: #d55e00; stroke-linejoin: miter"/>
     <use xlink:href="#m330bc843bd" x="336.267391" y="153.160561" style="fill: #ffffff; stroke: #d55e00; stroke-linejoin: miter"/>
    </g>
   </g>
   <g id="line2d_25">
    <path d="M 205.107764 69.085957 
" clip-path="url(#pd07d78161b)" style="fill: none; stroke-dasharray: 3.7,1.6; stroke-dashoffset: 0; stroke: #0072b2"/>
    <g clip-path="url(#pd07d78161b)">
     <use xlink:href="#m8e6fe52f52" x="205.107764" y="69.085957" style="fill: #0072b2; stroke: #0072b2"/>
    </g>
   </g>
   <g id="line2d_26">
    <path d="M 205.107764 151.143779 
" clip-path="url(#pd07d78161b)" style="fill: none; stroke-dasharray: 3.7,1.6; stroke-dashoffset: 0; stroke: #d55e00"/>
    <g clip-path="url(#pd07d78161b)">
     <use xlink:href="#m330bc843bd" x="205.107764" y="151.143779" style="fill: #ffffff; stroke: #d55e00; stroke-linejoin: miter"/>
    </g>
   </g>
   <g id="patch_6">
    <path d="M 195.739219 153.916854 
L 195.739219 30.376345 
" style="fill: none; stroke: #000000; stroke-width: 0.5; stroke-linejoin: miter; stroke-linecap: square"/>
   </g>
   <g id="patch_7">
    <path d="M 195.739219 153.916854 
L 342.959208 153.916854 
" style="fill: none; stroke: #000000; stroke-width: 0.5; stroke-linejoin: miter; stroke-linecap: square"/>
   </g>
   <g id="text_20">
    <text style="font-size: 7px; font-family: 'Arial', 'Helvetica', 'Liberation Sans', 'DejaVu Sans', sans-serif; text-anchor: start" x="210.431037" y="81.085957" transform="rotate(-0 210.431037 81.085957)">v_min = 1</text>
   </g>
   <g id="text_21">
    <text style="font-weight: 700; font-size: 8px; font-family: 'Arial', 'Helvetica', 'Liberation Sans', 'DejaVu Sans', sans-serif; text-anchor: start" x="177.739219" y="24.797595" transform="rotate(-0 177.739219 24.797595)">b</text>
   </g>
   <g id="text_22">
    <text style="font-size: 7px; font-family: 'Arial', 'Helvetica', 'Liberation Sans', 'DejaVu Sans', sans-serif; text-anchor: middle" x="269.349214" y="24.376345" transform="rotate(-0 269.349214 24.376345)">E_max 1</text>
   </g>
   <g id="PathCollection_3">
    <path d="M 202.431037 73.829373 
C 203.689006 73.829373 204.895621 73.329577 205.785139 72.440059 
C 206.674657 71.55054 207.174453 70.343925 207.174453 69.085957 
C 207.174453 67.827988 206.674657 66.621373 205.785139 65.731855 
C 204.895621 64.842336 203.689006 64.34254 202.431037 64.34254 
C 201.173068 64.34254 199.966453 64.842336 199.076935 65.731855 
C 198.187417 66.621373 197.68762 67.827988 197.68762 69.085957 
C 197.68762 70.343925 198.187417 71.55054 199.076935 72.440059 
C 199.966453 73.329577 201.173068 73.829373 202.431037 73.829373 
L 202.431037 73.829373 
z
" clip-path="url(#pd07d78161b)" style="fill: none; stroke: #000000"/>
   </g>
   <g id="PathCollection_4">
    <path d="M 205.107764 73.829373 
C 206.365733 73.829373 207.572348 73.329577 208.461866 72.440059 
C 209.351384 71.55054 209.85118 70.343925 209.85118 69.085957 
C 209.85118 67.827988 209.351384 66.621373 208.461866 65.731855 
C 207.572348 64.842336 206.365733 64.34254 205.107764 64.34254 
C 203.849795 64.34254 202.64318 64.842336 201.753662 65.731855 
C 200.864144 66.621373 200.364347 67.827988 200.364347 69.085957 
C 200.364347 70.343925 200.864144 71.55054 201.753662 72.440059 
C 202.64318 73.329577 203.849795 73.829373 205.107764 73.829373 
L 205.107764 73.829373 
z
" clip-path="url(#pd07d78161b)" style="fill: none; stroke: #000000"/>
   </g>
  </g>
  <g id="axes_3">
   <g id="patch_8">
    <path d="M 366.959688 153.916854 
L 514.179677 153.916854 
L 514.179677 30.376345 
L 366.959688 30.376345 
z
" style="fill: #ffffff"/>
   </g>
   <g id="matplotlib.axis_5">
    <g id="xtick_9">
     <g id="line2d_27">
      <g>
       <use xlink:href="#m06f5d43fc4" x="373.651506" y="153.916854" style="stroke: #000000; stroke-width: 0.5"/>
      </g>
     </g>
     <g id="text_23">
      <text style="font-size: 6px; font-family: 'Arial', 'Helvetica', 'Liberation Sans', 'DejaVu Sans', sans-serif; text-anchor: middle" x="373.651506" y="162.711541" transform="rotate(-0 373.651506 162.711541)">1</text>
     </g>
    </g>
    <g id="xtick_10">
     <g id="line2d_28">
      <g>
       <use xlink:href="#m06f5d43fc4" x="418.263624" y="153.916854" style="stroke: #000000; stroke-width: 0.5"/>
      </g>
     </g>
     <g id="text_24">
      <text style="font-size: 6px; font-family: 'Arial', 'Helvetica', 'Liberation Sans', 'DejaVu Sans', sans-serif; text-anchor: middle" x="418.263624" y="162.711541" transform="rotate(-0 418.263624 162.711541)">2</text>
     </g>
    </g>
    <g id="xtick_11">
     <g id="line2d_29">
      <g>
       <use xlink:href="#m06f5d43fc4" x="462.875742" y="153.916854" style="stroke: #000000; stroke-width: 0.5"/>
      </g>
     </g>
     <g id="text_25">
      <text style="font-size: 6px; font-family: 'Arial', 'Helvetica', 'Liberation Sans', 'DejaVu Sans', sans-serif; text-anchor: middle" x="462.875742" y="162.711541" transform="rotate(-0 462.875742 162.711541)">3</text>
     </g>
    </g>
    <g id="xtick_12">
     <g id="line2d_30">
      <g>
       <use xlink:href="#m06f5d43fc4" x="507.48786" y="153.916854" style="stroke: #000000; stroke-width: 0.5"/>
      </g>
     </g>
     <g id="text_26">
      <text style="font-size: 6px; font-family: 'Arial', 'Helvetica', 'Liberation Sans', 'DejaVu Sans', sans-serif; text-anchor: middle" x="507.48786" y="162.711541" transform="rotate(-0 507.48786 162.711541)">4</text>
     </g>
    </g>
    <g id="text_27">
     <text style="font-size: 7px; font-family: 'Arial', 'Helvetica', 'Liberation Sans', 'DejaVu Sans', sans-serif; text-anchor: middle" x="440.569683" y="170.91451" transform="rotate(-0 440.569683 170.91451)">v_min: votes a region needs</text>
    </g>
   </g>
   <g id="matplotlib.axis_6">
    <g id="ytick_11">
     <g id="line2d_31">
      <g>
       <use xlink:href="#mfbc4c7f4f1" x="366.959688" y="153.916854" style="stroke: #000000; stroke-width: 0.5"/>
      </g>
     </g>
    </g>
    <g id="ytick_12">
     <g id="line2d_32">
      <g>
       <use xlink:href="#mfbc4c7f4f1" x="366.959688" y="128.707078" style="stroke: #000000; stroke-width: 0.5"/>
      </g>
     </g>
    </g>
    <g id="ytick_13">
     <g id="line2d_33">
      <g>
       <use xlink:href="#mfbc4c7f4f1" x="366.959688" y="103.497301" style="stroke: #000000; stroke-width: 0.5"/>
      </g>
     </g>
    </g>
    <g id="ytick_14">
     <g id="line2d_34">
      <g>
       <use xlink:href="#mfbc4c7f4f1" x="366.959688" y="78.287525" style="stroke: #000000; stroke-width: 0.5"/>
      </g>
     </g>
    </g>
    <g id="ytick_15">
     <g id="line2d_35">
      <g>
       <use xlink:href="#mfbc4c7f4f1" x="366.959688" y="53.077749" style="stroke: #000000; stroke-width: 0.5"/>
      </g>
     </g>
    </g>
   </g>
   <g id="line2d_36">
    <path d="M 373.651506 41.6073 
L 418.263624 50.934918 
L 462.875742 57.867606 
L 507.48786 63.161659 
" clip-path="url(#p9a5c1a04a7)" style="fill: none; stroke: #0072b2; stroke-linecap: square"/>
    <g clip-path="url(#p9a5c1a04a7)">
     <use xlink:href="#m8e6fe52f52" x="373.651506" y="41.6073" style="fill: #0072b2; stroke: #0072b2"/>
     <use xlink:href="#m8e6fe52f52" x="418.263624" y="50.934918" style="fill: #0072b2; stroke: #0072b2"/>
     <use xlink:href="#m8e6fe52f52" x="462.875742" y="57.867606" style="fill: #0072b2; stroke: #0072b2"/>
     <use xlink:href="#m8e6fe52f52" x="507.48786" y="63.161659" style="fill: #0072b2; stroke: #0072b2"/>
    </g>
   </g>
   <g id="line2d_37">
    <path d="M 373.651506 111.690479 
L 418.263624 125.807953 
L 462.875742 135.513717 
L 507.48786 142.194308 
" clip-path="url(#p9a5c1a04a7)" style="fill: none; stroke: #d55e00; stroke-linecap: square"/>
    <g clip-path="url(#p9a5c1a04a7)">
     <use xlink:href="#m330bc843bd" x="373.651506" y="111.690479" style="fill: #ffffff; stroke: #d55e00; stroke-linejoin: miter"/>
     <use xlink:href="#m330bc843bd" x="418.263624" y="125.807953" style="fill: #ffffff; stroke: #d55e00; stroke-linejoin: miter"/>
     <use xlink:href="#m330bc843bd" x="462.875742" y="135.513717" style="fill: #ffffff; stroke: #d55e00; stroke-linejoin: miter"/>
     <use xlink:href="#m330bc843bd" x="507.48786" y="142.194308" style="fill: #ffffff; stroke: #d55e00; stroke-linejoin: miter"/>
    </g>
   </g>
   <g id="line2d_38">
    <path d="M 376.328233 41.6073 
" clip-path="url(#p9a5c1a04a7)" style="fill: none; stroke-dasharray: 3.7,1.6; stroke-dashoffset: 0; stroke: #0072b2"/>
    <g clip-path="url(#p9a5c1a04a7)">
     <use xlink:href="#m8e6fe52f52" x="376.328233" y="41.6073" style="fill: #0072b2; stroke: #0072b2"/>
    </g>
   </g>
   <g id="line2d_39">
    <path d="M 376.328233 111.690479 
" clip-path="url(#p9a5c1a04a7)" style="fill: none; stroke-dasharray: 3.7,1.6; stroke-dashoffset: 0; stroke: #d55e00"/>
    <g clip-path="url(#p9a5c1a04a7)">
     <use xlink:href="#m330bc843bd" x="376.328233" y="111.690479" style="fill: #ffffff; stroke: #d55e00; stroke-linejoin: miter"/>
    </g>
   </g>
   <g id="patch_9">
    <path d="M 366.959688 153.916854 
L 366.959688 30.376345 
" style="fill: none; stroke: #000000; stroke-width: 0.5; stroke-linejoin: miter; stroke-linecap: square"/>
   </g>
   <g id="patch_10">
    <path d="M 366.959688 153.916854 
L 514.179677 153.916854 
" style="fill: none; stroke: #000000; stroke-width: 0.5; stroke-linejoin: miter; stroke-linecap: square"/>
   </g>
   <g id="text_28">
    <text style="font-size: 7px; font-family: 'Arial', 'Helvetica', 'Liberation Sans', 'DejaVu Sans', sans-serif" transform="translate(394.72187 90.255943)">no v_min brings shuffled calls</text>
    <text style="font-size: 7px; font-family: 'Arial', 'Helvetica', 'Liberation Sans', 'DejaVu Sans', sans-serif" transform="translate(412.947027 97.741787)">to 5% of real calls</text>
   </g>
   <g id="text_29">
    <text style="font-weight: 700; font-size: 8px; font-family: 'Arial', 'Helvetica', 'Liberation Sans', 'DejaVu Sans', sans-serif; text-anchor: start" x="348.959688" y="24.797595" transform="rotate(-0 348.959688 24.797595)">c</text>
   </g>
   <g id="text_30">
    <text style="font-size: 7px; font-family: 'Arial', 'Helvetica', 'Liberation Sans', 'DejaVu Sans', sans-serif; text-anchor: middle" x="440.569683" y="24.376345" transform="rotate(-0 440.569683 24.376345)">E_max 10</text>
   </g>
  </g>
  <g id="legend_1">
   <g id="line2d_40">
    <path d="M 106.134057 6.467813 
L 109.734057 6.467813 
L 113.334057 6.467813 
" style="fill: none; stroke: #0072b2; stroke-linecap: square"/>
    <g>
     <use xlink:href="#m8e6fe52f52" x="109.734057" y="6.467813" style="fill: #0072b2; stroke: #0072b2"/>
    </g>
   </g>
   <g id="text_31">
    <text style="font-size: 6px; font-family: 'Arial', 'Helvetica', 'Liberation Sans', 'DejaVu Sans', sans-serif; text-anchor: start" x="115.734057" y="8.567813" transform="rotate(-0 115.734057 8.567813)">real queries</text>
   </g>
   <g id="line2d_41">
    <path d="M 153.082182 6.467813 
L 156.682182 6.467813 
L 160.282182 6.467813 
" style="fill: none; stroke: #d55e00; stroke-linecap: square"/>
    <g>
     <use xlink:href="#m330bc843bd" x="156.682182" y="6.467813" style="fill: #ffffff; stroke: #d55e00; stroke-linejoin: miter"/>
    </g>
   </g>
   <g id="text_32">
    <text style="font-size: 6px; font-family: 'Arial', 'Helvetica', 'Liberation Sans', 'DejaVu Sans', sans-serif; text-anchor: start" x="162.682182" y="8.567813" transform="rotate(-0 162.682182 8.567813)">shuffled queries</text>
   </g>
   <g id="line2d_42">
    <path d="M 210.93437 6.467813 
L 214.53437 6.467813 
L 218.13437 6.467813 
" style="fill: none; stroke: #000000; stroke-linecap: square"/>
   </g>
   <g id="text_33">
    <text style="font-size: 6px; font-family: 'Arial', 'Helvetica', 'Liberation Sans', 'DejaVu Sans', sans-serif; text-anchor: start" x="220.53437" y="8.567813" transform="rotate(-0 220.53437 8.567813)">every pair counted</text>
   </g>
   <g id="line2d_43">
    <path d="M 275.892807 6.467813 
L 279.492807 6.467813 
L 283.092807 6.467813 
" style="fill: none; stroke-dasharray: 3.7,1.6; stroke-dashoffset: 0; stroke: #000000"/>
   </g>
   <g id="text_34">
    <text style="font-size: 6px; font-family: 'Arial', 'Helvetica', 'Liberation Sans', 'DejaVu Sans', sans-serif; text-anchor: start" x="285.492807" y="8.567813" transform="rotate(-0 285.492807 8.567813)">one vote per cluster</text>
   </g>
   <g id="line2d_44">
    <defs>
     <path id="m26e5303b0c" d="M 0 4 
C 1.060812 4 2.078319 3.578535 2.828427 2.828427 
C 3.578535 2.078319 4 1.060812 4 0 
C 4 -1.060812 3.578535 -2.078319 2.828427 -2.828427 
C 2.078319 -3.578535 1.060812 -4 0 -4 
C -1.060812 -4 -2.078319 -3.578535 -2.828427 -2.828427 
C -3.578535 -2.078319 -4 -1.060812 -4 0 
C -4 1.060812 -3.578535 2.078319 -2.828427 2.828427 
C -2.078319 3.578535 -1.060812 4 0 4 
z
" style="stroke: #000000"/>
    </defs>
    <g>
     <use xlink:href="#m26e5303b0c" x="347.784995" y="6.467813" style="fill-opacity: 0; stroke: #000000"/>
    </g>
   </g>
   <g id="text_35">
    <text style="font-size: 6px; font-family: 'Arial', 'Helvetica', 'Liberation Sans', 'DejaVu Sans', sans-serif; text-anchor: start" x="353.784995" y="8.567813" transform="rotate(-0 353.784995 8.567813)">the vote count to use</text>
   </g>
  </g>
 </g>
 <defs>
  <clipPath id="p8453d5437e">
   <rect x="24.51875" y="30.376345" width="147.219989" height="123.540509"/>
  </clipPath>
  <clipPath id="pd07d78161b">
   <rect x="195.739219" y="30.376345" width="147.219989" height="123.540509"/>
  </clipPath>
  <clipPath id="p9a5c1a04a7">
   <rect x="366.959688" y="30.376345" width="147.219989" height="123.540509"/>
  </clipPath>
 </defs>
</svg>
